Coordinates
version=1
nRows=17
nColumns=24
inDegrees=yes

Units are S.I. units (second, meters, Newtons, ...)
Angles are in degrees.

endheader
time	pelvis_tilt	pelvis_list	pelvis_rotation	pelvis_tx	pelvis_ty	pelvis_tz	hip_flexion_r	hip_adduction_r	hip_rotation_r	knee_angle_r	ankle_angle_r	subtalar_angle_r	mtp_angle_r	hip_flexion_l	hip_adduction_l	hip_rotation_l	knee_angle_l	ankle_angle_l	subtalar_angle_l	mtp_angle_l	lumbar_extension	lumbar_bending	lumbar_rotation
      5.83000000	     60.63030671	    -17.81360365	      3.94372905	      0.53872143	      0.95713916	     -0.23817650	      3.12395017	     -8.89559947	    -20.54390094	    -62.63004806	    -17.64152506	      0.00000000	      0.00000000	     12.23318119	    -15.86772134	      6.95888619	    -62.85918675	    -26.37131868	      0.00000000	      0.00000000	      0.00000000	      0.00000000	      0.00000000
      5.84000000	     60.71322273	    -17.82954964	      3.95770377	      0.53873592	      0.95714402	     -0.23811876	      3.04913996	     -8.86887077	    -20.58490875	    -62.66012653	    -17.63928109	      0.00000000	      0.00000000	     12.14417458	    -15.90608340	      6.92436566	    -62.93099297	    -26.35623047	      0.00000000	      0.00000000	      0.00000000	      0.00000000	      0.00000000
      5.85000000	     60.79114913	    -17.84371110	      3.96789910	      0.53877000	      0.95713016	     -0.23804195	      2.97850339	     -8.84151006	    -20.63691469	    -62.68856750	    -17.64131419	      0.00000000	      0.00000000	     12.05756398	    -15.94223968	      6.89602874	    -63.00110001	    -26.34105498	      0.00000000	      0.00000000	      0.00000000	      0.00000000	      0.00000000
      5.86000000	     60.85021851	    -17.85283458	      3.97072126	      0.53874874	      0.95713628	     -0.23798280	      2.92634883	     -8.81569059	    -20.69625462	    -62.71017299	    -17.65059751	      0.00000000	      0.00000000	     11.98646319	    -15.96998666	      6.87502734	    -63.06290118	    -26.32735430	      0.00000000	      0.00000000	      0.00000000	      0.00000000	      0.00000000
      5.87000000	     60.88257601	    -17.85587710	      3.96554672	      0.53867089	      0.95717183	     -0.23795867	      2.90217759	     -8.79299846	    -20.75614212	    -62.72346800	    -17.66952017	      0.00000000	      0.00000000	     11.94005129	    -15.98610353	      6.86239327	    -63.11385855	    -26.31648810	      0.00000000	      0.00000000	      0.00000000	      0.00000000	      0.00000000
      5.88000000	     60.88699396	    -17.85388809	      3.95432510	      0.53858197	      0.95721345	     -0.23795295	      2.90816620	     -8.77483898	    -20.80892303	    -62.73058411	    -17.69858565	      0.00000000	      0.00000000	     11.92137470	    -15.99148876	      6.85885268	    -63.15630835	    -26.30949481	      0.00000000	      0.00000000	      0.00000000	      0.00000000	      0.00000000
      5.89000000	     60.86750050	    -17.84832954	      3.93964016	      0.53851464	      0.95723802	     -0.23794200	      2.93983883	     -8.76168292	    -20.84926678	    -62.73564562	    -17.73589606	      0.00000000	      0.00000000	     11.92770060	    -15.99004582	      6.86457807	    -63.19551144	    -26.30706847	      0.00000000	      0.00000000	      0.00000000	      0.00000000	      0.00000000
      5.90000000	     60.83163079	    -17.84008538	      3.92319182	      0.53851406	      0.95722937	     -0.23790267	      2.98918144	     -8.75232070	    -20.87627925	    -62.74236959	    -17.77756083	      0.00000000	      0.00000000	     11.95270417	    -15.98596241	      6.87879004	    -63.23619192	    -26.30956631	      0.00000000	      0.00000000	      0.00000000	      0.00000000	      0.00000000
      5.91000000	     60.78754970	    -17.82936206	      3.90566683	      0.53859242	      0.95719205	     -0.23783598	      3.04794006	     -8.74408432	    -20.89334513	    -62.75216038	    -17.81865712	      0.00000000	      0.00000000	     11.98894764	    -15.98158384	      6.89965073	    -63.27989950	    -26.31698652	      0.00000000	      0.00000000	      0.00000000	      0.00000000	      0.00000000
      5.92000000	     60.74159174	    -17.81647617	      3.88776760	      0.53866956	      0.95715622	     -0.23777400	      3.10955519	     -8.73434757	    -20.90589350	    -62.76356523	    -17.85423370	      0.00000000	      0.00000000	     12.02949281	    -15.97738508	      6.92475307	    -63.32484004	    -26.32888530	      0.00000000	      0.00000000	      0.00000000	      0.00000000	      0.00000000
      5.93000000	     60.69838948	    -17.80286403	      3.87110144	      0.53867128	      0.95713882	     -0.23773653	      3.16955931	     -8.72186967	    -20.91884140	    -62.77330426	    -17.88011578	      0.00000000	      0.00000000	     12.06845547	    -15.97327405	      6.95193227	    -63.36792674	    -26.34426518	      0.00000000	      0.00000000	      0.00000000	      0.00000000	      0.00000000
      5.94000000	     60.66174549	    -17.79068883	      3.85781256	      0.53862978	      0.95712606	     -0.23771292	      3.22484397	     -8.70647963	    -20.93533525	    -62.77819247	    -17.89358385	      0.00000000	      0.00000000	     12.10121657	    -15.96958239	      6.97998598	    -63.40715276	    -26.36151639	      0.00000000	      0.00000000	      0.00000000	      0.00000000	      0.00000000
      5.95000000	     60.63399506	    -17.78142946	      3.84951783	      0.53860932	      0.95711257	     -0.23769211	      3.27264207	     -8.68822180	    -20.95654137	    -62.77638818	    -17.89391493	      0.00000000	      0.00000000	     12.12497456	    -15.96713302	      7.00906582	    -63.44247518	    -26.37848579	      0.00000000	      0.00000000	      0.00000000	      0.00000000	      0.00000000
      5.96000000	     60.61517703	    -17.77506017	      3.84658404	      0.53861757	      0.95711065	     -0.23768019	      3.31020728	     -8.66720431	    -20.98179095	    -62.76718744	    -17.88255655	      0.00000000	      0.00000000	     12.13930765	    -15.96672986	      7.04052576	    -63.47508308	    -26.39272956	      0.00000000	      0.00000000	      0.00000000	      0.00000000	      0.00000000
      5.97000000	     60.60362235	    -17.77051074	      3.84848445	      0.53863015	      0.95711640	     -0.23768674	      3.33574441	     -8.64400800	    -21.00890954	    -62.75001956	    -17.86275011	      0.00000000	      0.00000000	     12.14587495	    -15.96867681	      7.07615613	    -63.50624994	    -26.40195400	      0.00000000	      0.00000000	      0.00000000	      0.00000000	      0.00000000
      5.98000000	     60.59746662	    -17.76686758	      3.85492950	      0.53863678	      0.95711662	     -0.23771409	      3.34985958	     -8.61996503	    -21.03488653	    -62.72379615	    -17.83868094	      0.00000000	      0.00000000	     12.14726361	    -15.97261868	      7.11707209	    -63.53670751	    -26.40452236	      0.00000000	      0.00000000	      0.00000000	      0.00000000	      0.00000000
      5.99000000	     60.59555929	    -17.76412234	      3.86611399	      0.53864377	      0.95711620	     -0.23776143	      3.35540280	     -8.59668855	    -21.05712182	    -62.68735058	    -17.81442338	      0.00000000	      0.00000000	     12.14585240	    -15.97765883	      7.16281091	    -63.56655804	    -26.39983444	      0.00000000	      0.00000000	      0.00000000	      0.00000000	      0.00000000
